<svg xmlns="http://www.w3.org/2000/svg" xmlns:svg="http://www.w3.org/2000/svg" id="svg8" width="177mm" height="993.712" version="1.1" viewBox="0 0 177 262.92"><metadata id="metadata5"/><g id="layer2" transform="translate(-18.401503,-22.218134)"><g id="g1157" transform="translate(4.8643054,-73.338758)"><rect id="rect1146" width="167" height="167" x="18.537" y="100.557" fill="none" fill-opacity="1" stroke="#d03a3c" stroke-dasharray="20 20" stroke-dashoffset="0" stroke-linecap="round" stroke-linejoin="round" stroke-miterlimit="4" stroke-opacity="1" stroke-width="10" rx="15" ry="15"/><path id="path1150" fill="none" stroke="#000" stroke-dasharray="20 20" stroke-dashoffset="17" stroke-linecap="round" stroke-linejoin="round" stroke-miterlimit="4" stroke-opacity="1" stroke-width="10" d="m 101.23069,122.93414 c -30.868026,1.93259 -39.162829,28.6826 -39.122571,42.63359 -0.35238,11.70876 26.93184,52.68807 40.627291,78.74672 14.01642,-26.87694 39.28953,-66.49639 39.12258,-79.74986 1.1526,-12.35573 -6.63739,-40.38878 -40.6273,-41.63045 z"/><circle id="path1152" cx="102.037" cy="165.664" r="18.179" fill="none" fill-opacity="1" stroke="#d03a3c" stroke-dasharray="20 20" stroke-dashoffset="0" stroke-linecap="round" stroke-linejoin="round" stroke-miterlimit="4" stroke-opacity="1" stroke-width="10"/></g></g><g id="layer3" display="inline" transform="translate(-18.401503,-22.218134)"><path id="path1177" fill="none" stroke="#000" stroke-dasharray="14.73 14.73" stroke-dashoffset="0" stroke-linecap="round" stroke-linejoin="round" stroke-miterlimit="4" stroke-opacity="1" stroke-width="7.365" d="m 108.13725,185.49516 c 0.20998,26.83281 12.84101,21.9681 -13.096207,38.16608 -2.638659,-1.50186 -14.548792,9.6593 -28.811654,-10.47696 -15.21393,-10.39806 -41.766165,6.95732 -26.192414,23.19899 40.458965,10.97582 8.862786,31.53133 40.785329,38.1661 26.790476,-42.29113 22.293106,13.03855 58.745856,6.36101"/><g id="g1283" transform="matrix(0.16453936,0,0,0.16453936,118.0717,190.00649)"><g id="g1226"><g id="g1224"><g id="g1392" transform="matrix(0.88918521,0,0,0.88918521,-9.1100779,132.673)"><g id="XMLID_14_"><path id="XMLID_110_" d="m 165.062,245.376 -23.933,0.019 -7.708,6.554 c -6.662,5.664 -8.991,14.934 -5.797,23.074 l 14.313,36.482 -0.006,-6.985 c -0.017,-22.821 8.732,-43.555 23.131,-59.144 z"/><path id="XMLID_221_" d="m 324.85,251.949 -7.708,-6.554 -23.933,-0.019 c 14.399,15.589 23.148,36.323 23.13,59.144 l -0.006,6.985 14.313,-36.482 c 3.195,-8.14 0.866,-17.41 -5.796,-23.074 z"/><circle id="XMLID_450_" cx="226.487" cy="35.358" r="35.358"/><path id="XMLID_798_" d="m 228.99,335.274 c -0.006,0 -0.012,0 -0.018,0 -11.751,0.009 -21.27,9.543 -21.26,21.294 l 0.064,79.922 c 0.009,11.745 9.534,21.26 21.277,21.26 0.006,0 0.012,0 0.018,0 11.751,-0.009 21.27,-9.543 21.26,-21.294 l -0.064,-79.922 c -0.01,-11.746 -9.534,-21.261 -21.277,-21.26 z"/><path id="XMLID_804_" d="m 348.604,206.941 c -2.005,-8.247 -14.696,-60.458 -16.586,-68.231 -0.863,-3.549 -2.841,-6.727 -5.644,-9.066 L 276.226,87.776 c -2.085,-1.741 -4.703,-2.684 -7.419,-2.678 l -84.251,0.194 c -3.059,0.007 -6.006,1.154 -8.263,3.218 -0.003,0.003 -0.007,0.006 -0.01,0.01 l -54.038,49.496 c -2.963,2.715 -4.874,6.388 -5.394,10.372 -0.884,6.765 -7.178,54.961 -8.045,61.604 -1.22,9.343 5.364,17.905 14.707,19.126 4.811,0.626 9.435,-0.811 12.994,-3.717 l 56.662,-0.045 c 2.162,6.29 6.038,12.12 11.433,16.662 -25.129,9.807 -42.692,34.222 -42.669,62.489 l 0.059,74.273 c 0.007,8.391 6.819,15.198 15.21,15.198 0.004,0 0.008,0 0.012,0 l 10.528,-0.009 -0.03,-37.382 c -0.018,-22.76 18.365,-41.292 41.26,-41.311 h 0.018 c 22.742,0 41.258,18.502 41.276,41.244 l 0.03,37.383 v 0 l 10.526,-0.009 h 0.002 c 8.389,-0.006 15.204,-6.812 15.198,-15.222 -0.065,-80.8 -0.006,-75.189 -0.196,-78.33 -1.628,-26.898 -19.038,-49.197 -42.63,-58.363 -0.001,0 -0.002,0 -0.002,-0.001 5.06,-4.274 9.127,-9.999 11.407,-16.68 l 58.092,-0.047 c 3.873,2.531 8.668,3.439 13.365,2.297 9.154,-2.227 14.772,-11.452 12.546,-20.607 z m -119.716,23.946 c -0.004,0 -0.009,0 -0.014,0 -9.778,0 -17.738,-7.951 -17.746,-17.731 -0.008,-9.808 7.922,-17.752 17.73,-17.76 0.004,0 0.009,0 0.014,0 9.778,0 17.738,7.951 17.746,17.731 0.009,9.785 -7.945,17.752 -17.73,17.76 z m 35.692,-29.958 c -5.067,-14.774 -19.139,-25.6 -35.911,-25.529 -16.322,0.085 -30.455,10.588 -35.54,25.586 l -48.743,0.039 c 4.045,-30.969 0.791,-6.056 5.492,-42.052 l 31.634,-28.975 0.11,49.977 c 10.616,-15.122 28.09,-24.563 47.221,-24.578 h 0.03 0.001 0.001 c 16.816,0.001 32.366,7.301 43.101,19.345 l -0.101,-46.151 28.316,23.642 c 2.68,11.025 9.446,38.858 11.828,48.659 z"/></g></g></g></g></g></g></svg>